<?xml version="1.0" standalone="no"?>
<!DOCTYPE svg PUBLIC "-//W3C//DTD SVG 20010904//EN"
 "http://www.w3.org/TR/2001/REC-SVG-20010904/DTD/svg10.dtd">
<svg version="1.0" xmlns="http://www.w3.org/2000/svg"
 width="900.000000pt" height="810.000000pt" viewBox="0 0 900.000000 810.000000"
 preserveAspectRatio="xMidYMid meet">
<metadata>
Created by potrace 1.10, written by Peter Selinger 2001-2011
</metadata>
<g transform="translate(0.000000,810.000000) scale(0.100000,-0.100000)"
fill="#000000" stroke="none">
<path d="M4460 7018 c-1 -8 -2 -465 -1 -476 1 -9 17 -12 59 -10 l57 3 3 160
c2 145 4 161 23 181 37 40 101 37 141 -6 16 -17 18 -40 18 -180 l0 -160 60 0
60 0 0 165 c0 172 0 174 -50 253 -45 70 -209 95 -271 41 -23 -20 -52 -13 -63
16 -4 12 -35 23 -36 13z"/>
<path d="M3867 6911 l-16 -39 -57 19 c-51 17 -64 18 -112 7 -65 -15 -138 -79
-166 -144 -21 -48 -18 -136 6 -196 17 -44 76 -118 94 -118 6 0 17 -7 24 -15 9
-11 34 -15 96 -15 96 0 138 19 187 84 33 42 44 44 76 11 13 -14 27 -25 31 -25
20 0 20 43 1 83 -12 24 -21 52 -21 63 -1 10 -7 30 -15 44 -8 14 -14 33 -15 43
0 11 -6 33 -14 50 -14 33 -35 112 -44 160 -7 41 -37 35 -55 -12z m-90 -132
c40 -15 81 -57 88 -91 20 -89 -37 -164 -121 -161 -135 5 -173 195 -50 249 38
16 47 17 83 3z"/>
<path d="M5438 6835 c-109 -72 -164 -216 -119 -315 19 -43 72 -110 87 -110 4
0 16 -8 26 -17 20 -18 111 -24 188 -13 34 5 35 4 40 -30 4 -29 10 -36 33 -38
23 -3 27 0 27 20 0 24 22 98 46 156 8 18 14 41 14 50 0 10 7 27 15 38 8 10 15
28 15 39 0 11 6 29 13 40 12 18 37 92 37 109 0 13 -32 5 -61 -16 l-31 -23 -18
25 c-29 40 -68 80 -78 80 -5 0 -15 7 -22 15 -9 11 -33 15 -94 14 -68 0 -87 -4
-118 -24z m194 -118 c15 -11 31 -37 38 -62 40 -144 -147 -239 -225 -114 -14
21 -25 49 -25 61 0 27 35 100 58 121 33 30 109 27 154 -6z"/>
<path d="M2678 6617 c-43 -28 -63 -57 -40 -57 10 0 102 -124 102 -138 0 -5 -9
-12 -20 -15 -34 -9 -25 -38 37 -116 1 -2 12 4 23 14 23 21 47 14 60 -17 13
-29 28 -54 63 -100 58 -77 173 -101 258 -53 24 13 54 29 67 35 35 15 36 34 5
78 -34 50 -46 55 -71 34 -11 -9 -30 -25 -41 -34 -12 -11 -38 -18 -60 -18 -36
0 -43 5 -90 64 -74 94 -74 105 -2 139 88 42 94 48 81 77 -26 57 -42 80 -58 80
-15 0 -54 -30 -114 -86 -27 -26 -51 -8 -93 71 -22 41 -44 75 -50 74 -5 0 -31
-14 -57 -32z"/>
<path d="M6240 6365 c-100 -136 -115 -172 -107 -253 5 -42 14 -63 42 -98 36
-43 90 -75 130 -76 56 0 67 -8 60 -38 -5 -22 -2 -31 13 -39 17 -9 23 -6 41 24
26 44 197 272 228 304 29 30 29 57 1 72 -13 7 -29 18 -36 26 -15 15 -52 18
-52 4 0 -12 -114 -167 -153 -208 -60 -64 -157 -29 -157 56 0 33 11 54 71 132
40 52 75 96 79 99 4 3 13 16 20 29 11 21 10 26 -6 37 -11 7 -24 17 -30 22 -45
39 -46 38 -144 -93z"/>
<path d="M2293 6006 c7 -50 -2 -62 -54 -73 -44 -8 -95 -47 -127 -97 -21 -34
-25 -52 -25 -116 0 -70 3 -82 32 -126 72 -109 204 -161 302 -120 87 36 146
114 151 197 l3 54 48 -3 c44 -3 47 -2 47 20 0 18 -15 34 -63 65 -34 23 -74 52
-87 65 -14 13 -45 39 -70 58 -25 18 -64 53 -88 77 -58 58 -77 57 -69 -1z m94
-182 c47 -28 68 -63 68 -119 0 -124 -125 -163 -216 -69 -28 29 -33 41 -33 86
0 47 3 54 39 85 44 38 94 44 142 17z"/>
<path d="M7170 5889 c-19 -17 -47 -42 -62 -55 -32 -30 -45 -30 -68 -2 l-18 22
-41 -28 c-26 -19 -40 -35 -36 -44 13 -35 16 -62 7 -62 -22 0 -133 -92 -157
-130 -21 -33 -25 -52 -25 -113 0 -40 5 -78 11 -84 13 -13 33 -47 48 -80 13
-29 51 -30 76 -3 10 11 24 20 32 20 23 0 14 45 -16 74 -51 49 -50 118 3 154
18 12 46 36 64 53 35 34 66 33 83 -4 14 -33 49 -90 64 -106 12 -12 19 -10 49
12 19 15 39 27 45 27 25 0 8 43 -36 92 -25 29 -50 55 -55 56 -12 5 -10 29 5
36 6 3 24 14 38 24 14 9 45 28 67 42 23 14 42 30 42 35 0 18 -63 95 -78 95 -4
0 -23 -14 -42 -31z"/>
<path d="M4450 5390 c-69 -4 -147 -12 -175 -19 -111 -28 -161 -43 -188 -57
-16 -8 -35 -14 -44 -14 -8 0 -27 -6 -41 -14 -15 -8 -67 -34 -117 -58 -93 -44
-123 -78 -70 -78 14 0 42 -7 62 -15 19 -8 47 -15 62 -15 14 0 35 -7 45 -15 26
-20 100 -19 116 0 7 8 18 15 25 15 7 0 18 7 25 15 7 8 27 15 45 15 18 0 49 -7
68 -15 20 -8 47 -15 61 -15 13 0 37 -7 52 -15 24 -13 61 -15 234 -10 113 3
240 8 282 11 l77 5 6 -38 c3 -21 12 -57 20 -81 22 -66 18 -70 -95 -70 -114 -1
-140 -6 -140 -31 0 -10 -7 -24 -15 -31 -17 -14 -20 -37 -6 -42 17 -6 106 -83
168 -144 66 -65 84 -77 109 -67 13 5 15 24 13 124 -2 65 0 121 3 125 4 3 37 3
75 -1 66 -7 68 -8 84 -43 42 -99 50 -112 62 -112 7 0 18 5 25 12 9 9 16 7 32
-7 11 -10 20 -25 20 -33 0 -7 6 -26 13 -40 8 -15 21 -43 29 -62 25 -60 44
-103 67 -153 27 -57 24 -81 -9 -85 -14 -2 -29 -8 -34 -13 -6 -5 -22 -9 -36 -9
-14 0 -35 -7 -46 -15 -10 -8 -29 -15 -41 -15 -12 0 -24 -4 -27 -9 -7 -11 -88
-51 -103 -51 -11 0 -41 -31 -57 -60 -6 -10 -34 -53 -63 -94 -50 -73 -52 -76
-46 -129 5 -49 3 -56 -16 -67 -41 -21 -65 6 -80 90 -6 32 -9 35 -36 32 -17 -2
-67 -6 -112 -10 -45 -4 -83 -9 -86 -12 -12 -13 -37 -71 -37 -85 0 -9 -8 -27
-17 -42 -15 -23 -15 -27 -2 -37 9 -6 24 -23 33 -38 23 -36 31 -35 66 4 26 28
36 32 82 33 52 0 53 0 51 -29 -1 -16 -9 -37 -18 -46 -28 -31 -15 -55 30 -56
45 0 60 -20 73 -96 6 -33 13 -43 35 -51 35 -11 57 -3 57 21 0 41 25 47 169 43
154 -3 146 0 254 -105 56 -55 57 -58 57 -111 0 -41 4 -55 14 -55 8 0 27 -7 43
-14 15 -8 36 -17 46 -20 21 -7 22 -46 2 -101 -8 -22 -14 -54 -15 -71 0 -18 -7
-45 -15 -60 -8 -16 -15 -41 -15 -55 0 -28 -24 -53 -82 -88 -33 -20 -38 -27
-38 -61 0 -28 -8 -48 -32 -77 -39 -47 -136 -135 -175 -160 -15 -10 -30 -20
-33 -23 -3 -3 -24 -18 -47 -34 -43 -28 -48 -46 -14 -46 17 0 81 27 91 39 3 3
28 17 55 31 28 14 66 37 86 53 20 15 40 27 43 27 19 0 158 117 248 209 100
102 185 212 228 296 6 11 21 38 35 60 13 22 24 47 25 56 0 9 7 22 15 29 8 7
15 22 15 34 0 11 7 30 15 40 8 11 15 27 15 37 0 9 7 30 15 45 8 16 15 42 15
57 0 16 5 38 12 50 17 32 29 134 35 302 5 142 0 203 -28 340 -22 110 -28 132
-49 185 -12 30 -26 69 -31 87 -5 18 -14 35 -19 38 -6 4 -10 14 -10 24 0 10 -7
24 -15 31 -8 7 -15 18 -15 26 0 7 -13 32 -28 56 -16 24 -45 68 -66 99 -55 86
-178 221 -253 280 -38 30 -72 59 -76 66 -4 7 -13 13 -19 13 -5 0 -27 12 -47
28 -61 46 -263 152 -290 152 -9 0 -25 7 -35 15 -11 8 -31 15 -45 15 -14 1 -37
7 -51 15 -14 8 -39 14 -56 15 -17 0 -49 6 -70 13 -48 17 -248 25 -414 17z
m297 -80 c97 -13 196 -36 293 -67 88 -28 170 -65 170 -75 0 -5 9 -8 19 -8 11
0 23 -4 26 -10 3 -5 25 -18 48 -29 53 -26 123 -77 170 -123 20 -20 44 -39 54
-42 10 -3 23 -16 28 -28 6 -12 19 -26 30 -32 11 -6 26 -20 34 -31 19 -24 147
-185 161 -202 16 -19 110 -210 110 -224 0 -7 11 -36 25 -66 14 -29 23 -58 20
-63 -3 -5 5 -42 19 -82 49 -146 54 -438 10 -623 -24 -103 -48 -181 -63 -205
-5 -8 -30 -58 -56 -111 -45 -93 -91 -159 -156 -226 -37 -38 -54 -42 -45 -10 4
12 9 58 13 103 7 97 -4 136 -56 196 -21 23 -41 56 -45 72 -10 43 -141 173
-201 201 -62 29 -159 43 -290 40 -113 -3 -127 4 -165 77 -28 53 -27 82 2 75
48 -13 128 53 144 118 8 33 61 115 85 132 10 7 27 28 38 46 22 36 115 89 189
107 24 6 45 17 48 25 3 8 21 23 40 34 76 45 80 133 15 274 -21 45 -43 93 -49
107 -22 47 -77 111 -151 176 -57 49 -89 69 -135 83 -62 19 -78 37 -70 76 12
53 -72 168 -130 179 -46 9 -247 9 -379 1 -85 -6 -117 -4 -150 8 -23 8 -59 17
-80 20 -20 3 -51 15 -68 27 -40 29 -26 45 54 60 34 7 78 15 97 20 52 12 258
11 347 0z"/>
<path d="M1703 5186 c-29 -6 -58 -17 -65 -23 -6 -7 -17 -13 -22 -13 -25 0 -97
-79 -125 -137 -17 -34 -31 -65 -31 -69 0 -4 -11 -36 -25 -71 -27 -67 -26 -83
6 -83 11 0 30 -5 42 -12 12 -6 35 -15 52 -19 16 -4 55 -17 85 -29 30 -12 66
-24 80 -27 14 -3 34 -12 45 -19 11 -8 29 -14 40 -14 12 0 30 -7 41 -15 10 -8
28 -15 39 -15 11 0 29 -6 40 -13 29 -19 101 -41 113 -33 5 3 12 20 15 38 5 37
23 90 43 130 9 16 14 59 14 112 0 77 -3 92 -32 147 -29 55 -100 129 -125 129
-5 0 -15 6 -21 12 -12 12 -112 37 -142 36 -8 0 -38 -6 -67 -12z m184 -153 c54
-41 83 -94 83 -150 0 -53 -22 -125 -39 -131 -6 -2 -31 6 -54 17 -24 12 -50 21
-58 21 -8 0 -23 7 -33 15 -11 8 -28 15 -38 15 -9 0 -32 6 -50 14 -18 8 -52 20
-75 26 -23 7 -44 19 -48 28 -15 41 85 163 145 175 54 11 131 -3 167 -30z"/>
<path d="M7325 5061 c-11 -5 -33 -23 -50 -40 -41 -44 -41 -118 -2 -214 22 -53
25 -71 17 -87 -21 -40 -62 -13 -75 50 -4 19 -10 40 -14 45 -10 15 -40 116 -43
145 -3 28 -29 37 -62 22 -11 -6 -30 -13 -41 -14 -24 -4 -24 -44 -1 -93 30 -65
46 -106 46 -123 0 -9 7 -26 15 -36 8 -11 15 -27 15 -36 0 -34 84 -90 134 -90
37 0 92 27 115 56 25 32 29 130 7 172 -8 15 -22 46 -32 70 -17 41 -17 43 2 57
25 19 39 19 54 0 16 -19 79 -202 80 -229 0 -20 11 -19 83 6 41 14 46 32 23 76
-23 46 -46 102 -46 115 0 24 -52 113 -77 131 -29 22 -115 31 -148 17z"/>
<path d="M3559 5003 c-58 -62 -118 -130 -146 -168 -63 -83 -90 -121 -96 -135
-4 -8 -16 -28 -27 -45 -11 -16 -22 -37 -26 -45 -3 -8 -10 -22 -15 -30 -5 -8
-12 -22 -15 -30 -3 -8 -12 -28 -19 -45 -39 -91 -45 -107 -45 -123 0 -10 -5
-23 -12 -30 -6 -6 -15 -30 -19 -54 -5 -24 -13 -65 -18 -93 -25 -120 -33 -227
-28 -331 9 -159 22 -266 35 -291 7 -12 12 -34 12 -50 0 -15 7 -41 15 -57 8
-15 15 -34 15 -42 0 -7 7 -30 16 -51 39 -92 47 -109 55 -123 4 -8 20 -37 34
-65 40 -76 45 -85 113 -175 73 -100 214 -241 292 -295 30 -21 57 -41 60 -44
14 -16 75 -52 165 -95 55 -27 112 -55 127 -62 14 -8 33 -14 41 -14 8 0 28 -7
43 -15 16 -8 36 -15 45 -15 9 0 33 -7 52 -15 20 -8 53 -15 74 -15 21 0 63 -7
93 -15 76 -20 307 -20 413 1 l82 16 34 72 c18 39 40 87 48 106 9 19 22 47 30
62 7 14 13 34 13 45 0 10 7 27 15 37 8 11 15 27 15 35 0 8 9 34 21 58 11 24
18 51 14 62 -3 10 -32 36 -64 56 -62 40 -91 83 -91 135 0 16 -6 47 -14 67 -7
21 -18 62 -23 91 -10 57 -6 69 58 151 24 30 17 41 -29 41 -34 0 -41 6 -92 71
-34 44 -70 79 -95 91 -22 12 -52 27 -67 34 -14 8 -34 14 -45 14 -10 0 -27 7
-37 15 -11 8 -28 15 -37 15 -10 0 -30 7 -46 15 -15 8 -39 17 -53 19 -18 4 -36
24 -65 76 -22 38 -43 70 -46 70 -4 0 -10 8 -13 18 -7 18 -12 27 -60 102 -16
25 -52 89 -79 142 -27 54 -53 100 -58 104 -13 7 -10 93 5 194 11 67 11 88 1
100 -6 8 -15 22 -19 30 -3 8 -15 29 -26 45 -11 17 -24 39 -30 50 -33 63 -57
99 -70 106 -8 4 -33 15 -55 24 -22 10 -53 24 -69 32 -32 15 -27 17 -109 -57
-49 -44 -107 -123 -107 -144 0 -20 24 -21 40 -1 7 8 18 15 25 15 7 0 15 6 18
13 2 7 30 25 60 41 43 21 63 26 88 21 32 -7 109 -69 109 -88 0 -6 10 -21 21
-33 16 -18 25 -48 36 -131 8 -59 12 -120 9 -134 -3 -14 0 -45 5 -70 9 -42 77
-209 89 -219 3 -3 19 -30 34 -60 16 -30 32 -57 37 -60 4 -3 14 -17 21 -30 8
-14 35 -57 61 -97 55 -83 98 -113 250 -175 56 -22 104 -44 105 -49 2 -5 12 -9
21 -9 19 0 80 -56 121 -111 23 -31 25 -40 22 -121 -4 -86 0 -106 45 -247 15
-46 52 -117 90 -167 22 -29 22 -33 9 -100 -7 -38 -18 -78 -24 -89 -6 -11 -24
-50 -41 -86 -52 -110 -96 -138 -229 -146 -53 -3 -104 -5 -112 -5 -61 3 -152
13 -190 21 -25 5 -70 14 -101 20 -49 10 -94 25 -234 78 -22 8 -47 20 -55 27
-8 7 -28 18 -45 25 -16 6 -61 34 -100 61 -38 28 -89 63 -112 78 -61 42 -263
256 -263 280 0 5 -15 29 -32 53 -110 149 -209 406 -227 584 -12 124 -5 414 12
468 9 29 23 77 31 107 23 85 49 151 77 200 15 25 30 56 34 68 6 22 64 108 114
171 18 24 20 24 45 7 15 -9 34 -34 44 -54 9 -20 18 -39 19 -41 2 -2 14 8 29
24 24 26 27 55 5 55 -6 0 -16 18 -22 40 -10 34 -9 43 6 67 10 15 27 34 37 41
27 19 22 32 -12 32 -16 0 -30 5 -30 11 0 23 35 69 52 69 27 0 35 30 13 46 -10
8 -22 14 -25 14 -3 0 -26 -21 -51 -47z"/>
<path d="M1615 4101 c-22 -4 -51 -14 -64 -22 -36 -21 -91 -71 -91 -82 0 -6 -8
-19 -17 -30 -15 -15 -18 -38 -18 -112 0 -74 3 -97 18 -112 9 -11 17 -24 17
-29 0 -25 72 -77 140 -101 130 -47 286 47 317 192 12 54 -1 143 -25 167 -6 6
-12 17 -12 23 0 14 -56 66 -95 87 -37 19 -116 28 -170 19z m125 -143 c13 -11
35 -34 48 -52 22 -31 22 -35 8 -67 -8 -19 -17 -42 -20 -51 -8 -26 -66 -58
-106 -58 -47 0 -80 18 -108 60 -20 29 -22 43 -17 80 8 51 25 75 75 100 41 21
83 17 120 -12z"/>
<path d="M7446 4103 c-64 -7 -137 -64 -179 -140 -26 -47 -24 -170 4 -223 54
-102 189 -162 293 -129 89 28 143 81 177 171 20 54 21 66 10 107 -41 156 -146
230 -305 214z m156 -173 c9 -11 19 -38 23 -61 12 -72 -55 -139 -140 -139 -36
0 -47 5 -73 34 -40 46 -46 70 -32 122 12 41 50 82 90 96 21 7 112 -29 132 -52z"/>
<path d="M1948 3135 c-8 -9 -107 -46 -148 -55 -114 -27 -135 -36 -138 -59 -6
-36 14 -51 51 -40 18 6 43 17 57 24 33 18 82 23 87 10 2 -6 -30 -43 -71 -83
-71 -69 -74 -74 -65 -104 4 -17 10 -33 13 -35 3 -3 31 5 63 17 76 28 149 49
196 57 21 3 41 12 44 19 7 20 -5 64 -18 64 -6 0 -45 -14 -86 -30 -109 -44
-116 -28 -25 63 51 52 72 80 72 98 0 27 -22 64 -32 54z"/>
<path d="M7280 3078 c-1 -22 -11 -45 -30 -68 -34 -39 -38 -69 -13 -108 57 -90
155 -105 217 -31 31 37 40 64 27 86 -7 13 -5 23 7 36 24 26 4 50 -48 59 -23 4
-47 11 -54 17 -6 5 -26 12 -43 16 -18 3 -33 11 -33 16 0 5 -7 9 -15 9 -10 0
-15 -10 -15 -32z m115 -93 c14 -13 25 -31 25 -40 0 -23 -37 -55 -65 -55 -29 0
-65 32 -65 57 0 23 39 63 62 63 10 0 30 -11 43 -25z"/>
<path d="M7193 2827 c-5 -7 -15 -27 -23 -44 -15 -38 -23 -40 -57 -13 -23 18
-29 19 -47 7 -32 -22 -33 -53 -1 -61 14 -4 40 -20 57 -36 26 -25 36 -29 67
-24 27 4 41 2 50 -10 37 -45 152 1 166 65 12 52 -44 70 -67 22 -21 -42 -41
-50 -82 -30 -39 18 -47 45 -21 67 21 17 18 32 -9 52 -19 13 -26 15 -33 5z"/>
<path d="M1859 2756 c-42 -29 -69 -67 -69 -97 0 -26 35 -85 55 -93 9 -3 15
-18 15 -36 0 -39 12 -38 94 4 37 19 76 36 89 38 16 2 21 9 19 23 -1 11 -4 36
-6 55 -9 110 -111 165 -197 106z m119 -68 c15 -26 15 -30 0 -55 -23 -38 -79
-44 -102 -11 -22 30 -20 47 6 75 30 32 74 28 96 -9z"/>
<path d="M7100 2596 c0 -8 -13 -25 -29 -39 -39 -33 -64 -83 -56 -114 3 -13 26
-44 51 -69 40 -38 52 -44 87 -44 28 1 51 8 68 23 32 26 58 76 51 96 -2 8 6 22
18 31 13 10 20 22 17 27 -7 12 -183 103 -198 103 -5 0 -9 -6 -9 -14z m92 -99
c23 -34 21 -61 -6 -84 -15 -13 -31 -23 -36 -23 -17 0 -70 52 -70 68 1 21 20
47 40 55 20 8 63 -2 72 -16z"/>
<path d="M2054 2503 c-21 -27 -55 -66 -76 -88 -42 -45 -47 -73 -18 -100 17
-15 24 -16 47 -6 14 7 56 14 92 17 102 8 111 11 111 39 0 33 -34 51 -67 36
-28 -13 -93 -15 -93 -3 0 4 18 26 40 47 39 38 46 57 34 89 -10 27 -30 18 -70
-31z"/>
<path d="M2286 2354 c-9 -8 -16 -24 -16 -35 0 -14 -7 -19 -26 -19 -14 0 -43
-13 -63 -28 -20 -16 -43 -32 -51 -35 -54 -25 -75 -45 -75 -73 0 -25 3 -29 28
-27 15 1 46 17 70 35 52 41 77 57 100 64 10 4 17 16 17 30 0 24 14 32 25 14
10 -16 29 -12 53 10 23 22 21 46 -6 68 -21 16 -37 15 -56 -4z"/>
<path d="M6860 2336 c-19 -13 -50 -42 -68 -65 -40 -50 -38 -79 7 -99 16 -7 68
-42 115 -77 47 -36 92 -65 99 -65 8 0 31 27 51 61 60 101 48 171 -40 237 -55
41 -112 44 -164 8z m123 -57 c26 -12 57 -57 57 -84 0 -20 -31 -75 -42 -75 -4
0 -39 23 -77 50 -54 40 -68 55 -64 71 11 39 78 60 126 38z"/>
<path d="M2255 2163 c-76 -40 -105 -96 -81 -155 9 -20 22 -38 31 -41 8 -4 15
-11 15 -17 0 -16 -38 -12 -48 6 -5 9 -18 14 -33 12 -34 -4 -36 -38 -4 -68 21
-20 37 -25 78 -25 48 0 58 5 135 63 46 34 88 62 93 62 15 0 10 30 -6 36 -8 4
-15 15 -15 26 0 34 -33 79 -72 99 -44 23 -54 23 -93 2z m84 -79 c26 -33 26
-37 -2 -70 -41 -48 -107 -28 -107 33 0 28 37 63 66 63 12 0 32 -12 43 -26z"/>
<path d="M6668 1979 c-13 -17 -36 -44 -51 -60 -18 -18 -25 -33 -20 -41 4 -7
43 -46 85 -87 76 -73 78 -74 98 -56 30 27 24 46 -30 89 -63 50 -71 72 -36 102
14 13 26 28 26 35 0 10 -37 49 -46 49 -1 0 -13 -14 -26 -31z"/>
<path d="M2405 1894 c-59 -60 -62 -104 -10 -157 19 -19 45 -37 57 -39 17 -2
24 -11 26 -30 2 -16 5 -28 8 -28 3 0 42 39 88 86 81 83 83 86 61 96 -15 6 -25
22 -29 42 -9 46 -53 76 -111 76 -41 0 -50 -5 -90 -46z m134 -46 c12 -20 13
-34 5 -55 -8 -23 -16 -29 -48 -31 -62 -5 -88 51 -45 97 28 30 68 25 88 -11z"/>
<path d="M2763 1823 c-7 -2 -13 -11 -13 -19 0 -8 -20 -24 -45 -35 -39 -17 -44
-23 -39 -43 4 -18 -3 -33 -30 -62 -48 -52 -49 -96 -3 -149 37 -43 62 -43 73 0
5 20 1 30 -15 41 -29 21 -26 48 9 86 26 29 32 31 43 18 7 -8 22 -23 34 -33 21
-18 22 -18 39 8 17 25 16 26 -15 52 -38 31 -38 37 -6 65 46 40 22 93 -32 71z"/>
<path d="M6470 1791 c-32 -27 -35 -33 -35 -85 0 -51 3 -59 37 -93 33 -33 43
-37 88 -37 43 0 55 5 85 34 26 25 35 42 35 67 0 29 -3 33 -25 33 -18 0 -28 -7
-35 -25 -10 -26 -29 -34 -32 -12 -1 6 -2 41 -2 77 l-1 65 -40 3 c-32 2 -47 -3
-75 -27z m64 -97 c1 -28 -3 -39 -16 -42 -21 -4 -34 49 -18 78 16 30 32 12 34
-36z"/>
<path d="M2916 1697 c-14 -10 -17 -23 -14 -45 4 -25 0 -32 -18 -36 -12 -3 -41
-32 -64 -63 -24 -32 -54 -68 -66 -81 -19 -20 -21 -27 -12 -48 6 -13 19 -24 29
-24 19 0 136 151 145 187 4 13 14 23 24 23 20 0 50 30 50 52 0 16 -31 48 -46
48 -6 0 -18 -6 -28 -13z"/>
<path d="M6137 1643 c-14 -14 -6 -41 24 -74 16 -19 57 -73 90 -121 48 -71 65
-88 85 -88 34 0 41 26 16 58 -69 89 -75 101 -63 128 9 20 17 25 39 22 20 -2
36 -17 65 -60 28 -43 45 -58 62 -58 48 0 46 22 -7 90 -81 104 -116 119 -175
74 -38 -29 -59 -26 -73 11 -9 24 -47 35 -63 18z"/>
<path d="M2960 1524 c-6 -15 -34 -59 -62 -97 -41 -55 -49 -73 -41 -86 20 -32
50 -25 77 18 15 22 26 44 26 49 0 16 36 42 58 42 25 0 45 -31 35 -57 -7 -20
-40 -69 -61 -91 -21 -23 -11 -57 19 -60 22 -3 31 6 65 60 50 83 54 147 11 184
-15 13 -40 27 -55 30 -15 4 -35 13 -44 22 -16 13 -18 12 -28 -14z"/>
<path d="M5972 1530 c-27 -25 -27 -25 0 -50 16 -15 21 -30 20 -56 -2 -31 1
-36 28 -45 16 -6 30 -14 30 -18 0 -4 17 -26 38 -49 33 -36 45 -42 78 -42 50 0
88 20 92 47 5 31 -27 45 -67 30 -37 -14 -58 -4 -81 38 -14 25 -14 28 4 39 11
6 28 19 39 30 19 18 19 18 -2 39 l-21 21 -29 -22 c-17 -12 -34 -22 -39 -22 -5
0 -17 18 -27 40 -20 45 -32 49 -63 20z"/>
<path d="M3225 1373 c-34 -9 -83 -63 -90 -100 -11 -61 2 -89 56 -124 36 -23
47 -35 39 -43 -7 -7 -16 -7 -30 2 -38 23 -70 10 -70 -28 0 -12 59 -40 84 -40
40 1 97 53 133 120 19 36 41 75 49 87 22 34 18 63 -8 63 -12 0 -33 14 -47 30
-26 31 -73 45 -116 33z m79 -85 c21 -29 20 -48 -3 -75 -21 -25 -69 -31 -89
-11 -17 17 -15 74 4 92 23 24 70 20 88 -6z"/>
<path d="M5924 1369 c-3 -6 -18 -9 -32 -6 -58 11 -132 -54 -132 -116 0 -64 67
-147 119 -147 26 0 100 45 108 66 4 11 14 14 34 10 36 -7 37 7 5 54 -13 19
-35 61 -50 93 -27 57 -39 67 -52 46z m-4 -89 c29 -29 26 -76 -6 -97 -24 -15
-29 -15 -53 -2 -14 8 -30 27 -36 43 -8 25 -6 31 18 52 34 29 51 30 77 4z"/>
<path d="M3627 1249 c-31 -25 -37 -37 -37 -67 1 -20 8 -46 18 -57 18 -22 73
-51 107 -57 13 -2 21 -12 23 -31 3 -25 1 -27 -35 -27 -21 0 -47 6 -58 14 -11
7 -35 17 -52 21 -29 6 -34 4 -43 -20 -6 -15 -8 -30 -5 -35 7 -11 97 -39 148
-46 37 -5 47 -2 75 21 26 22 32 34 32 68 0 47 -39 97 -76 97 -12 0 -33 9 -47
20 -27 21 -27 44 0 54 16 6 89 -15 123 -36 25 -16 53 -1 58 30 4 24 -32 52
-68 52 -14 1 -36 7 -50 15 -39 22 -72 18 -113 -16z"/>
<path d="M5378 1253 c-22 -5 -23 -33 -4 -88 54 -163 56 -189 8 -183 -28 3 -38
26 -64 157 -15 77 -26 93 -55 85 -35 -10 -32 -36 24 -202 17 -49 5 -75 -31
-70 -23 3 -32 27 -63 161 -17 78 -17 78 -48 75 -28 -3 -30 -5 -28 -43 2 -22
10 -57 18 -78 8 -20 15 -48 15 -61 0 -33 27 -82 58 -107 30 -24 82 -21 112 6
10 9 36 15 66 15 44 0 53 4 72 30 26 34 27 65 8 129 -8 25 -20 71 -27 101 -11
53 -25 81 -38 79 -3 -1 -14 -3 -23 -6z"/>
<path d="M5555 1219 c-42 -50 -47 -73 -28 -122 23 -62 53 -88 104 -94 50 -4
83 10 112 49 17 22 18 30 7 43 -17 21 -47 19 -60 -5 -6 -11 -15 -20 -20 -20
-15 0 -12 48 5 74 8 12 16 40 18 62 l2 39 -56 3 c-53 3 -58 1 -84 -29z m75
-57 c0 -37 -22 -67 -44 -59 -21 8 -20 32 2 62 23 33 42 31 42 -3z"/>
<path d="M3876 1053 c-9 -43 -21 -96 -27 -118 -33 -126 -33 -126 -18 -136 31
-20 54 -6 60 38 7 55 14 61 50 40 48 -27 83 -22 122 17 71 71 53 185 -35 216
-30 11 -42 11 -65 1 -23 -11 -29 -10 -39 3 -21 30 -32 16 -48 -61z m160 -24
c15 -24 5 -73 -18 -91 -30 -23 -40 -22 -71 5 -33 28 -34 57 -4 84 37 34 72 35
93 2z"/>
<path d="M4191 1033 c-27 -32 -31 -46 -31 -93 1 -43 6 -61 25 -85 24 -29 28
-30 102 -30 43 0 84 -4 91 -8 13 -9 14 -5 17 48 1 17 3 62 6 100 l4 70 -30 3
c-16 2 -34 10 -38 18 -5 9 -26 14 -62 14 -50 0 -56 -3 -84 -37z m126 -45 c44
-41 15 -101 -48 -101 -35 0 -49 15 -49 57 0 60 54 85 97 44z"/>
<path d="M4764 1036 c-38 -33 -39 -36 -38 -95 1 -56 4 -65 32 -91 17 -15 45
-31 62 -35 36 -8 91 9 115 35 15 17 16 22 4 36 -12 15 -34 15 -71 -1 -14 -5
-18 -2 -18 13 0 12 6 25 13 29 17 11 77 88 77 99 0 17 -62 44 -99 44 -28 0
-47 -8 -77 -34z m81 -35 c9 -16 -29 -81 -45 -78 -24 4 -23 43 1 66 25 23 35
26 44 12z"/>
<path d="M4528 1045 c-39 -22 -68 -75 -68 -127 0 -38 5 -50 37 -81 31 -32 43
-37 82 -37 60 0 104 33 91 68 -11 26 -44 29 -66 7 -20 -20 -26 -19 -58 6 -31
25 -34 61 -6 89 23 23 47 25 73 5 19 -14 46 -10 59 9 17 26 -46 76 -94 76 -13
-1 -35 -7 -50 -15z"/>
</g>
</svg>
